<svg xmlns="http://www.w3.org/2000/svg" xmlns:xlink="http://www.w3.org/1999/xlink" width="205" height="754" viewBox="0 0 205 754"><svg width="false" height="false" id="alsrubl-tahoma-regular" y="0"/>
<svg width="35" height="35" viewBox="0 0 35 35" id="basket__remove" y="0"><title>basket__remove</title><g transform="translate(1 1)" stroke="#1A1A1A" stroke-width="2" fill="none" fill-rule="evenodd"><circle cx="16.5" cy="16.5" r="16.5"/><path d="M10 11l11.86 11.86m0-11.86L10 22.86"/></g></svg>
<svg width="8" height="16" viewBox="0 0 8 16" id="black-panel__facebook" y="35"><title>facebook</title><path d="M5.005 5.18V3.52c0-.623.422-.77.72-.77h1.823V.01L5.036 0c-2.79 0-3.423 2.045-3.423 3.353V5.18H0v2.826h1.613V16h3.392V8.006h2.29L7.59 5.18H5.005z" fill="#FFF" fill-rule="evenodd"/></svg>
<svg width="7" height="14" viewBox="0 0 7 14" id="black-panel__facebook--black" y="51"><title>facebook</title><path d="M6.547 4.47h-2.23V3.036c0-.538.365-.664.62-.664H6.51V.008L4.346 0C1.94 0 1.39 1.764 1.39 2.893V4.47H0v2.437h1.39v6.896h2.93V6.907h1.974L6.55 4.47z" fill-rule="evenodd"/></svg>
<svg width="16" height="16" viewBox="0 0 16 16" id="black-panel__instagram" y="65"><title>instagram</title><path d="M12.908 0H3.092A3.095 3.095 0 0 0 0 3.092v9.816A3.095 3.095 0 0 0 3.092 16h9.816A3.095 3.095 0 0 0 16 12.908V3.092A3.095 3.095 0 0 0 12.908 0zm.887 1.844h.354v2.71l-2.705.01-.01-2.712 2.36-.008zm-8.08 4.514A2.815 2.815 0 0 1 8 5.184c.94 0 1.77.465 2.283 1.174A2.8 2.8 0 0 1 10.816 8 2.82 2.82 0 0 1 8 10.816 2.82 2.82 0 0 1 5.184 8c0-.613.2-1.18.532-1.642zm8.726 6.55c0 .846-.686 1.533-1.53 1.533H3.09a1.534 1.534 0 0 1-1.532-1.53V6.36h2.387A4.352 4.352 0 0 0 3.625 8 4.38 4.38 0 0 0 8 12.375 4.38 4.38 0 0 0 12.375 8c0-.58-.117-1.135-.323-1.642h2.39v6.55z" fill="#FFF" fill-rule="evenodd"/></svg>
<svg width="16" height="16" viewBox="0 0 16 16" id="black-panel__instagram--black" y="81"><title>instagram</title><path d="M12.908 0H3.092A3.095 3.095 0 0 0 0 3.092v9.816A3.095 3.095 0 0 0 3.092 16h9.816A3.095 3.095 0 0 0 16 12.908V3.09A3.095 3.095 0 0 0 12.908 0zm.887 1.844h.353v2.71l-2.702.01-.01-2.712 2.36-.008zm-8.08 4.514A2.815 2.815 0 0 1 8 5.183c.94 0 1.77.466 2.283 1.175A2.8 2.8 0 0 1 10.816 8 2.82 2.82 0 0 1 8 10.816 2.82 2.82 0 0 1 5.183 8c0-.614.2-1.18.533-1.642zm8.726 6.55c0 .845-.686 1.533-1.53 1.533H3.09a1.534 1.534 0 0 1-1.532-1.53V6.36h2.387A4.352 4.352 0 0 0 3.625 8 4.38 4.38 0 0 0 8 12.375 4.38 4.38 0 0 0 12.375 8c0-.58-.117-1.135-.323-1.642h2.39v6.55z" fill-rule="evenodd"/></svg>
<svg width="15" height="13" viewBox="0 0 15 13" id="breadcrumbs__home" y="97"><title>home</title><path d="M6.083 12.167v-4.25h2.834v4.25h3.54V6.5h2.126L7.5.125.417 6.5h2.125v5.667h3.54z" fill="#1A1A1A" fill-rule="evenodd"/></svg>
<svg width="24" height="14" viewBox="0 0 24 14" id="burger" y="110"><title>hamburger</title><path d="M0 0h24v2H0zm0 6h24v2H0zm0 6h24v2H0z" fill="#1A1A1A" fill-rule="evenodd"/></svg>
<svg width="31" height="27" viewBox="0 0 31 27" id="customer-service__about-comp" y="124"><title>jewelery</title><path d="M29.892 7.963c.062.08.108.175.108.285a.48.48 0 0 1-.155.35L15.87 25.948c-.008.01-.022.015-.03.024l-.012.015c-.013.012-.022.025-.036.036-.015.013-.034.018-.05.027-.023.015-.046.03-.072.04-.01.004-.02.013-.03.016-.003 0-.005.002-.007.003a.482.482 0 0 1-.132.02h-.01a.482.482 0 0 1-.133-.02c-.002 0-.004-.003-.005-.004-.01-.003-.02-.012-.03-.017-.027-.01-.05-.025-.074-.04-.015-.01-.034-.014-.05-.026-.012-.01-.022-.023-.035-.035-.003-.005-.005-.01-.01-.015-.01-.008-.023-.013-.032-.024L1.106 8.55s0-.003-.002-.005a.495.495 0 0 1-.068-.112.48.48 0 0 1-.03-.12L1.003 8.3a.48.48 0 0 1 .04-.247c.003-.005 0-.01.003-.014 0-.005.004-.007.006-.01.01-.018.022-.033.033-.05.015-.023.03-.045.048-.065l.007-.01L7.905 1.14c.005-.005.013-.007.018-.012.024-.022.05-.036.078-.053.03-.017.056-.034.087-.045.008-.003.014-.01.022-.012.02-.006.042-.002.064-.006C8.198 1.01 8.22 1 8.247 1h14.495c.025 0 .047.01.07.014.024.003.046 0 .07.006.007.003.013.01.02.012.032.01.058.028.086.045.027.017.054.03.078.052.005.003.013.005.018.01l6.712 6.713c.017.012.026.032.04.046.02.02.04.04.056.062zM15.495 23.96l4.57-15.23h-9.14l4.57 15.23zm1.172-.543L28.497 8.73h-7.424l-4.406 14.687zm-2.345 0L9.917 8.73H2.492l11.83 14.687zM8.016 2.397L2.648 7.765h6.98L8.015 2.397zm.88-.43l1.674 5.58 3.986-5.58h-5.66zM11.6 7.764h7.788l-3.893-5.45-3.894 5.45zm4.834-5.8l3.985 5.58 1.672-5.58h-5.66zm6.54.432l-1.614 5.37h6.98l-5.37-5.37z" stroke="#FFF" stroke-width=".2" fill="#1A1A1A" fill-rule="evenodd"/></svg>
<svg width="31" height="27" viewBox="0 0 31 27" id="customer-service__about-comp--hover" y="151"><title>jewelery</title><path d="M29.892 7.963c.062.08.108.175.108.285a.48.48 0 0 1-.155.35L15.87 25.948c-.008.01-.022.015-.03.024l-.012.015c-.013.012-.022.025-.036.036-.015.013-.034.018-.05.027-.023.015-.046.03-.072.04-.01.004-.02.013-.03.016-.003 0-.005.002-.007.003a.482.482 0 0 1-.132.02h-.01a.482.482 0 0 1-.133-.02c-.002 0-.004-.003-.005-.004-.01-.003-.02-.012-.03-.017-.027-.01-.05-.025-.074-.04-.015-.01-.034-.014-.05-.026-.012-.01-.022-.023-.035-.035-.003-.005-.005-.01-.01-.015-.01-.008-.023-.013-.032-.024L1.106 8.55s0-.003-.002-.005a.495.495 0 0 1-.068-.112.48.48 0 0 1-.03-.12L1.003 8.3a.48.48 0 0 1 .04-.247c.003-.005 0-.01.003-.014 0-.005.004-.007.006-.01.01-.018.022-.033.033-.05.015-.023.03-.045.048-.065l.007-.01L7.905 1.14c.005-.005.013-.007.018-.012.024-.022.05-.036.078-.053.03-.017.056-.034.087-.045.008-.003.014-.01.022-.012.02-.006.042-.002.064-.006C8.198 1.01 8.22 1 8.247 1h14.495c.025 0 .047.01.07.014.024.003.046 0 .07.006.007.003.013.01.02.012.032.01.058.028.086.045.027.017.054.03.078.052.005.003.013.005.018.01l6.712 6.713c.017.012.026.032.04.046.02.02.04.04.056.062zM15.495 23.96l4.57-15.23h-9.14l4.57 15.23zm1.172-.543L28.497 8.73h-7.424l-4.406 14.687zm-2.345 0L9.917 8.73H2.492l11.83 14.687zM8.016 2.397L2.648 7.765h6.98L8.015 2.397zm.88-.43l1.674 5.58 3.986-5.58h-5.66zM11.6 7.764h7.788l-3.893-5.45-3.894 5.45zm4.834-5.8l3.985 5.58 1.672-5.58h-5.66zm6.54.432l-1.614 5.37h6.98l-5.37-5.37z" stroke="#FFF" stroke-width=".2" fill="#FF0092" fill-rule="evenodd"/></svg>
<svg width="27" height="35" viewBox="0 0 27 35" id="customer-service__about-prod" y="178"><title>Shape</title><path d="M7 9.715V6.96a3 3 0 1 0-1 0v2.755C4.56 11.82.5 18.08.5 21.792.5 26.304 3.186 29 6.5 29s6-2.696 6-7.208c0-3.71-4.06-9.97-5.5-12.077zM6.5 6a2 2 0 1 0 0-4 2 2 0 0 0 0 4zm0 4.76c-.492.76-1.487 2.308-2.13 3.44a37.42 37.42 0 0 0-1.566 3.034C1.96 19.098 1.5 20.664 1.5 21.792 1.5 25.595 3.61 28 6.5 28s5-2.405 5-6.208c0-1.128-.46-2.694-1.304-4.558A37.42 37.42 0 0 0 8.63 14.2a65.383 65.383 0 0 0-2.13-3.44zM6.5 24c-1.87 0-3.385-1.402-3.385-3.747C3.115 17.907 6.5 13 6.5 13s3.385 4.907 3.385 7.253C9.885 22.598 8.37 24 6.5 24zm0-9.15s-.663 1.104-.82 1.383c-.275.497-.524.977-.74 1.43-.532 1.127-.825 2.04-.825 2.59C4.115 21.96 5.105 23 6.5 23c1.396 0 2.385-1.04 2.385-2.747 0-.55-.293-1.463-.826-2.59a24.576 24.576 0 0 0-.74-1.43 74.65 74.65 0 0 0-.82-1.383zm14.5-.135V11.96a3 3 0 1 0-1 0v2.755c-1.44 2.106-5.5 8.366-5.5 12.077 0 4.512 2.686 7.208 6 7.208s6-2.696 6-7.208c0-3.71-4.06-9.97-5.5-12.077zM20.5 11a2 2 0 1 0 0-4 2 2 0 0 0 0 4zm0 4.76c-.492.76-1.487 2.308-2.13 3.44a37.42 37.42 0 0 0-1.566 3.034c-.844 1.864-1.304 3.43-1.304 4.558 0 3.803 2.11 6.208 5 6.208s5-2.405 5-6.208c0-1.128-.46-2.694-1.304-4.558A37.42 37.42 0 0 0 22.63 19.2a65.383 65.383 0 0 0-2.13-3.44zm0 13.24c-1.87 0-3.385-1.402-3.385-3.747C17.115 22.907 20.5 18 20.5 18s3.385 4.907 3.385 7.253C23.885 27.598 22.37 29 20.5 29zm0-9.15s-.663 1.104-.82 1.383c-.275.497-.524.977-.74 1.43-.532 1.127-.825 2.04-.825 2.59 0 1.708.99 2.747 2.385 2.747 1.396 0 2.385-1.04 2.385-2.747 0-.55-.293-1.463-.826-2.59a24.576 24.576 0 0 0-.74-1.43 74.65 74.65 0 0 0-.82-1.383z" stroke="#FFF" stroke-width=".2" fill="#1A1A1A" fill-rule="evenodd"/></svg>
<svg width="27" height="35" viewBox="0 0 27 35" id="customer-service__about-prod--hover" y="213"><title>Shape</title><path d="M7 9.715V6.96a3 3 0 1 0-1 0v2.755C4.56 11.82.5 18.08.5 21.792.5 26.304 3.186 29 6.5 29s6-2.696 6-7.208c0-3.71-4.06-9.97-5.5-12.077zM6.5 6a2 2 0 1 0 0-4 2 2 0 0 0 0 4zm0 4.76c-.492.76-1.487 2.308-2.13 3.44a37.42 37.42 0 0 0-1.566 3.034C1.96 19.098 1.5 20.664 1.5 21.792 1.5 25.595 3.61 28 6.5 28s5-2.405 5-6.208c0-1.128-.46-2.694-1.304-4.558A37.42 37.42 0 0 0 8.63 14.2a65.383 65.383 0 0 0-2.13-3.44zM6.5 24c-1.87 0-3.385-1.402-3.385-3.747C3.115 17.907 6.5 13 6.5 13s3.385 4.907 3.385 7.253C9.885 22.598 8.37 24 6.5 24zm0-9.15s-.663 1.104-.82 1.383c-.275.497-.524.977-.74 1.43-.532 1.127-.825 2.04-.825 2.59C4.115 21.96 5.105 23 6.5 23c1.396 0 2.385-1.04 2.385-2.747 0-.55-.293-1.463-.826-2.59a24.576 24.576 0 0 0-.74-1.43 74.65 74.65 0 0 0-.82-1.383zm14.5-.135V11.96a3 3 0 1 0-1 0v2.755c-1.44 2.106-5.5 8.366-5.5 12.077 0 4.512 2.686 7.208 6 7.208s6-2.696 6-7.208c0-3.71-4.06-9.97-5.5-12.077zM20.5 11a2 2 0 1 0 0-4 2 2 0 0 0 0 4zm0 4.76c-.492.76-1.487 2.308-2.13 3.44a37.42 37.42 0 0 0-1.566 3.034c-.844 1.864-1.304 3.43-1.304 4.558 0 3.803 2.11 6.208 5 6.208s5-2.405 5-6.208c0-1.128-.46-2.694-1.304-4.558A37.42 37.42 0 0 0 22.63 19.2a65.383 65.383 0 0 0-2.13-3.44zm0 13.24c-1.87 0-3.385-1.402-3.385-3.747C17.115 22.907 20.5 18 20.5 18s3.385 4.907 3.385 7.253C23.885 27.598 22.37 29 20.5 29zm0-9.15s-.663 1.104-.82 1.383c-.275.497-.524.977-.74 1.43-.532 1.127-.825 2.04-.825 2.59 0 1.708.99 2.747 2.385 2.747 1.396 0 2.385-1.04 2.385-2.747 0-.55-.293-1.463-.826-2.59a24.576 24.576 0 0 0-.74-1.43 74.65 74.65 0 0 0-.82-1.383z" stroke="#FFF" stroke-width=".2" fill="#FF0092" fill-rule="evenodd"/></svg>
<svg width="28" height="26" viewBox="0 0 28 26" id="customer-service__contacts" y="248"><title>plane</title><path d="M26.99 1.366c.006.03.01.058.012.09 0 .018-.003.037-.006.057 0 .012.006.023.004.035L23.285 21.98a.467.467 0 0 1-.616.354L16.6 20.136l-4.582 4.866c-.005.006-.012.01-.02.014a.465.465 0 0 1-.174.107h-.002c-.015.006-.03.006-.047.008-.03.01-.06.02-.094.02H11.67a.465.465 0 0 1-.068-.008c-.014 0-.023-.01-.036-.013-.017-.006-.034-.005-.05-.01l-.006-.004c-.014-.006-.025-.017-.038-.024a.45.45 0 0 1-.073-.046c-.01-.008-.026-.013-.036-.022v-.002c-.01-.01-.015-.023-.024-.032a.482.482 0 0 1-.063-.095c-.012-.02-.033-.035-.04-.06L8.744 17.49l-7.43-2.584a.465.465 0 0 1-.063-.85L26.33 1.052a.465.465 0 0 1 .49.038c0 .003.002.007.005.01.004 0 .008.002.012.005.01.01.014.02.023.03.01.007.02.01.028.02.013.014.018.032.028.047a.472.472 0 0 1 .062.127c.004.01.008.022.01.035zm-1.226 1.786L13.59 18.056l3.045 1.104h.003l5.83 2.114 3.296-18.122zm-10.112 16.64l-2.476-.897-.766 4.34 3.242-3.443zm-3.295-1.603c.018-.053.016-.067.02-.08.01-.025.028-.044.042-.067.005-.015.012-.032.022-.046.012-.022 9.89-12.2 9.89-12.2L9.65 17.267l1.888 5.564.82-4.642zm-3.35-1.593L23.522 3.553 2.638 14.383l6.368 2.215z" stroke="#FFF" stroke-width=".2" fill-rule="evenodd"/></svg>
<svg width="28" height="26" viewBox="0 0 28 26" id="customer-service__contacts--hover" y="274"><title>plane</title><path d="M26.99 1.366c.006.03.01.058.012.09 0 .018-.003.037-.006.057 0 .012.006.023.004.035L23.285 21.98a.467.467 0 0 1-.616.354L16.6 20.136l-4.582 4.866c-.005.006-.012.01-.02.014a.465.465 0 0 1-.174.107h-.002c-.015.006-.03.006-.047.008-.03.01-.06.02-.094.02H11.67a.465.465 0 0 1-.068-.008c-.014 0-.023-.01-.036-.013-.017-.006-.034-.005-.05-.01l-.006-.004c-.014-.006-.025-.017-.038-.024a.45.45 0 0 1-.073-.046c-.01-.008-.026-.013-.036-.022v-.002c-.01-.01-.015-.023-.024-.032a.482.482 0 0 1-.063-.095c-.012-.02-.033-.035-.04-.06L8.744 17.49l-7.43-2.584a.465.465 0 0 1-.063-.85L26.33 1.052a.465.465 0 0 1 .49.038c0 .003.002.007.005.01.004 0 .008.002.012.005.01.01.014.02.023.03.01.007.02.01.028.02.013.014.018.032.028.047a.472.472 0 0 1 .062.127c.004.01.008.022.01.035zm-1.226 1.786L13.59 18.056l3.045 1.104h.003l5.83 2.114 3.296-18.122zm-10.112 16.64l-2.476-.897-.766 4.34 3.242-3.443zm-3.295-1.603c.018-.053.016-.067.02-.08.01-.025.028-.044.042-.067.005-.015.012-.032.022-.046.012-.022 9.89-12.2 9.89-12.2L9.65 17.267l1.888 5.564.82-4.642zm-3.35-1.593L23.522 3.553 2.638 14.383l6.368 2.215z" stroke="#FFF" stroke-width=".2" fill="#FF0092" fill-rule="evenodd"/></svg>
<svg width="32" height="23" viewBox="0 0 32 23" id="customer-service__delivery" y="300"><title>Shape</title><path d="M28.39 21.87H3.61A2.61 2.61 0 0 1 1 19.26V3.61A2.61 2.61 0 0 1 3.61 1h24.78A2.61 2.61 0 0 1 31 3.61v15.65a2.61 2.61 0 0 1-2.61 2.61zM2.305 9.478h27.392V6.87H2.304v2.608zm27.392-5.87c0-.72-.585-1.304-1.305-1.304H3.61c-.72 0-1.306.585-1.306 1.305v1.954h27.392V3.61zm0 7.175H2.304v8.478c0 .72.585 1.306 1.305 1.306h24.78c.72 0 1.305-.584 1.305-1.304v-8.477zm-12.392 3.913h-2.608a.652.652 0 0 1 0-1.305h2.608a.652.652 0 0 1 0 1.307zm-5.87 0h-5.87a.652.652 0 0 1 0-1.305h5.87a.652.652 0 0 1 0 1.307zm-5.87 1.956H9.48a.652.652 0 0 1 0 1.305H5.565a.652.652 0 0 1 0-1.305z" stroke="#FFF" stroke-width=".4" fill-rule="evenodd"/></svg>
<svg width="32" height="23" viewBox="0 0 32 23" id="customer-service__delivery--hover" y="323"><title>Shape</title><path d="M28.39 21.87H3.61A2.61 2.61 0 0 1 1 19.26V3.61A2.61 2.61 0 0 1 3.61 1h24.78A2.61 2.61 0 0 1 31 3.61v15.65a2.61 2.61 0 0 1-2.61 2.61zM2.305 9.478h27.392V6.87H2.304v2.608zm27.392-5.87c0-.72-.585-1.304-1.305-1.304H3.61c-.72 0-1.306.585-1.306 1.305v1.954h27.392V3.61zm0 7.175H2.304v8.478c0 .72.585 1.306 1.305 1.306h24.78c.72 0 1.305-.584 1.305-1.304v-8.477zm-12.392 3.913h-2.608a.652.652 0 0 1 0-1.305h2.608a.652.652 0 0 1 0 1.307zm-5.87 0h-5.87a.652.652 0 0 1 0-1.305h5.87a.652.652 0 0 1 0 1.307zm-5.87 1.956H9.48a.652.652 0 0 1 0 1.305H5.565a.652.652 0 0 1 0-1.305z" stroke="#FFF" stroke-width=".4" fill="#FF0092" fill-rule="evenodd"/></svg>
<svg width="27" height="25" viewBox="0 0 27 25" id="customer-service__help" y="346"><title>path-1</title><path d="M13.5 1C20.404 1 26 5.833 26 11.795c0 5.963-5.596 10.796-12.5 10.796-1.956 0-3.808-.386-5.456-1.08L1.87 24.336 3.4 18.16C1.89 16.373 1 14.174 1 11.794 1 5.834 6.596 1 13.5 1zM2.136 11.795c0 2.284.933 4.383 2.49 6.036l-1.022 4.477 4.3-2.102c1.652.796 3.562 1.25 5.596 1.25 6.276 0 11.364-4.324 11.364-9.66 0-5.333-5.088-9.658-11.364-9.658-6.276 0-11.364 4.325-11.364 9.66zm10.078 3.893h1.656v1.732h-1.656v-1.732zm1-10.653c1.092 0 1.967.312 2.625.936.655.627.984 1.424.984 2.395 0 .588-.12 1.066-.362 1.432-.24.366-.728.904-1.46 1.614-.533.517-.88.954-1.037 1.31-.158.36-.237.89-.237 1.588h-1.483c0-.794.095-1.433.283-1.92.19-.484.602-1.04 1.24-1.667l.666-.657c.2-.19.36-.386.483-.59.22-.362.332-.736.332-1.124 0-.545-.163-1.017-.488-1.416-.325-.4-.86-.6-1.61-.6-.927 0-1.568.344-1.923 1.032-.2.383-.315.935-.34 1.657H9.407c0-1.2.338-2.163 1.015-2.893.677-.73 1.606-1.095 2.788-1.095z" stroke="#FFF" stroke-width=".3" fill-rule="evenodd"/></svg>
<svg width="27" height="25" viewBox="0 0 27 25" id="customer-service__help--hover" y="371"><title>path-1</title><path d="M13.5 1C20.404 1 26 5.833 26 11.795c0 5.963-5.596 10.796-12.5 10.796-1.956 0-3.808-.386-5.456-1.08L1.87 24.336 3.4 18.16C1.89 16.373 1 14.174 1 11.794 1 5.834 6.596 1 13.5 1zM2.136 11.795c0 2.284.933 4.383 2.49 6.036l-1.022 4.477 4.3-2.102c1.652.796 3.562 1.25 5.596 1.25 6.276 0 11.364-4.324 11.364-9.66 0-5.333-5.088-9.658-11.364-9.658-6.276 0-11.364 4.325-11.364 9.66zm10.078 3.893h1.656v1.732h-1.656v-1.732zm1-10.653c1.092 0 1.967.312 2.625.936.655.627.984 1.424.984 2.395 0 .588-.12 1.066-.362 1.432-.24.366-.728.904-1.46 1.614-.533.517-.88.954-1.037 1.31-.158.36-.237.89-.237 1.588h-1.483c0-.794.095-1.433.283-1.92.19-.484.602-1.04 1.24-1.667l.666-.657c.2-.19.36-.386.483-.59.22-.362.332-.736.332-1.124 0-.545-.163-1.017-.488-1.416-.325-.4-.86-.6-1.61-.6-.927 0-1.568.344-1.923 1.032-.2.383-.315.935-.34 1.657H9.407c0-1.2.338-2.163 1.015-2.893.677-.73 1.606-1.095 2.788-1.095z" stroke="#FFF" stroke-width=".3" fill="#FF0092" fill-rule="evenodd"/></svg>
<svg width="25" height="25" viewBox="0 0 25 25" id="follow-block__instagram" y="396"><title>instagram</title><path d="M20.17 0H4.83A4.837 4.837 0 0 0 0 4.83v15.34A4.837 4.837 0 0 0 4.832 25H20.17A4.836 4.836 0 0 0 25 20.17V4.83A4.836 4.836 0 0 0 20.17 0zm1.385 2.88h.552v4.236l-4.223.014-.015-4.237 3.684-.012zM8.932 9.935A4.4 4.4 0 0 1 12.5 8.1c1.47 0 2.768.726 3.568 1.834.52.723.833 1.608.833 2.566 0 2.426-1.974 4.4-4.4 4.4a4.405 4.405 0 0 1-4.4-4.4c0-.958.31-1.843.833-2.566zM22.564 20.17a2.398 2.398 0 0 1-2.395 2.395H4.83a2.398 2.398 0 0 1-2.396-2.396V9.933h3.73a6.8 6.8 0 0 0-.502 2.566 6.844 6.844 0 0 0 6.836 6.836c3.77 0 6.836-3.068 6.836-6.836a6.8 6.8 0 0 0-.504-2.566h3.732v10.234z" fill="#1A1A1A" fill-rule="evenodd"/></svg>
<svg width="19" height="21" viewBox="0 0 19 21" id="goods-list__params" y="421"><title>filter</title><path d="M17.938 2.906H9.38A3.372 3.372 0 0 0 6.125.376a3.372 3.372 0 0 0-3.255 2.53H1.062a.844.844 0 0 0 0 1.688H2.87a3.372 3.372 0 0 0 3.255 2.53 3.372 3.372 0 0 0 3.255-2.53h8.557a.844.844 0 0 0 0-1.688zM6.124 5.436A1.69 1.69 0 0 1 4.437 3.75c0-.93.757-1.688 1.688-1.688.93 0 1.688.757 1.688 1.688a1.69 1.69 0 0 1-1.688 1.688zm11.814 4.22H16.13a3.372 3.372 0 0 0-3.255-2.53 3.372 3.372 0 0 0-3.255 2.53H1.063a.844.844 0 0 0 0 1.688H9.62a3.372 3.372 0 0 0 3.255 2.53 3.372 3.372 0 0 0 3.255-2.53h1.808a.844.844 0 0 0 0-1.688zm-5.063 2.53a1.69 1.69 0 0 1-1.688-1.686c0-.93.757-1.688 1.688-1.688.93 0 1.688.757 1.688 1.688a1.69 1.69 0 0 1-1.688 1.688zm5.063 4.22H9.38a3.372 3.372 0 0 0-3.255-2.53 3.372 3.372 0 0 0-3.255 2.53H1.062a.844.844 0 0 0 0 1.688H2.87a3.372 3.372 0 0 0 3.255 2.53 3.372 3.372 0 0 0 3.255-2.53h8.557a.844.844 0 0 0 0-1.688zM6.124 18.938a1.69 1.69 0 0 1-1.688-1.688c0-.93.757-1.688 1.688-1.688.93 0 1.688.757 1.688 1.688a1.69 1.69 0 0 1-1.688 1.688z" fill="#231F20" fill-rule="evenodd"/></svg>
<svg width="33" height="29" viewBox="0 0 33 29" id="goods__heart" y="442"><title>heart</title><path d="M3.882 3.356c-3.2 3.278-3.112 8.33 0 11.608L15.827 27.62a.94.94 0 0 0 1.376 0l11.945-12.656c3.112-3.277 3.2-8.33 0-11.608-3.2-3.14-8.41-3.14-11.61 0l-1.023 1.092-1.024-1.092c-1.6-1.64-3.705-2.322-5.802-2.322s-4.205.683-5.805 2.322z" stroke="#FF0092" stroke-width="2" fill="none"/></svg>
<svg width="33" height="29" viewBox="0 0 33 29" id="goods__heart--hover" y="471"><title>heart</title><path d="M3.882 3.356c-3.2 3.278-3.112 8.33 0 11.608L15.827 27.62a.94.94 0 0 0 1.376 0l11.945-12.656c3.112-3.277 3.2-8.33 0-11.608-3.2-3.14-8.41-3.14-11.61 0l-1.023 1.092-1.024-1.092c-1.6-1.64-3.705-2.322-5.802-2.322s-4.205.683-5.805 2.322z" stroke="#FF0092" stroke-width="2" fill="#FF0092" fill-rule="evenodd"/></svg>
<svg width="15" height="13" viewBox="0 0 15 13" id="heart" y="500"><title>heart</title><path d="M2.522 2c-1.353 1.39-1.316 3.534 0 4.924l4.654 4.948c.38.403.99.41 1.375 0l4.657-4.948c1.316-1.39 1.353-3.534 0-4.925a3.513 3.513 0 0 0-4.91 0l-.432.462L7.43 2c-.676-.696-1.567-.986-2.454-.986-.886 0-1.777.29-2.454.985z" stroke="#FF0092" stroke-width="1.5" fill="none"/></svg>
<svg width="14" height="13" viewBox="0 0 14 13" id="heart--hover" y="513"><title>heart</title><path d="M1.105 1.1c-1.494 1.53-1.453 3.887 0 5.417l5.207 5.517c.38.402.988.41 1.376 0l5.207-5.517c1.453-1.53 1.494-3.888 0-5.418a3.886 3.886 0 0 0-5.417 0L7 1.61l-.478-.51C5.775.334 4.792.015 3.812.015c-.977 0-1.96.32-2.707 1.083z" fill="#FF0092" fill-rule="evenodd"/></svg>
<svg width="205" height="46" viewBox="0 0 205 46" id="logo" y="526"><title>exclaim_logo_1</title><defs><path id="aya" d="M.035 0h204.492v45.965H.035V0z"/></defs><g fill="none" fill-rule="evenodd"><mask id="ayb" fill="#fff"><use xlink:href="#aya"/></mask><path d="M164.415 3.693c-.193.766-.575 1.3-1.15 1.608-.42.27-.822.384-1.205.346a2.89 2.89 0 0 1-.574-.057c-.575-.154-.997-.537-1.263-1.15a3.83 3.83 0 0 1-.23-1.32c0-.23.02-.46.058-.69.117-.687.44-1.3.977-1.835.345-.383.766-.575 1.264-.575.154-.04.345-.02.575.056.688.193 1.167.652 1.436 1.378a3.865 3.865 0 0 1 .116 2.24zm-5.972 13.145c.345-.917.995-1.377 1.953-1.377h.286c1.072.116 1.51.768 1.32 1.954a160.53 160.53 0 0 0-1.09 6.028 138.65 138.65 0 0 0-.976 7.12c-.422 3.596-.632 6.85-.632 9.758.037 2.908.536 4.477 1.493 4.707.995.268 2.047.077 3.158-.575 1.11-.65 2.2-1.57 3.273-2.755 1.607-1.722 3.06-3.71 4.363-5.97 1.265-2.258 2.146-4.056 2.643-5.396.23-.076.48-.115.747-.115.266 0 .495.04.688.115a73.81 73.81 0 0 1-1.55 3.385 34.44 34.44 0 0 1-2.125 3.847c-1.53 2.41-3.273 4.516-5.225 6.314-1.53 1.417-3.1 2.124-4.708 2.124-.46 0-.92-.058-1.378-.172a3.586 3.586 0 0 1-1.837-1.148c-.498-.574-.92-1.3-1.263-2.182-.575-1.606-.92-3.616-1.034-6.027a43.534 43.534 0 0 1-.057-2.294c0-1.683.08-3.425.23-5.225.19-2.14.44-4.265.748-6.37.306-2.104.632-4.02.976-5.74zM0 4.288h11.016v3.956H4.17v11.708h4.386v3.958H4.17v13.847h6.846v3.956H0V4.287" fill="#0A0A08" mask="url(#ayb)"/><path d="M40.48 41.713L37.27 30.38l-.214-1.498h-.106l-.215 1.497-3.21 11.332H28.93l5.99-19.676-5.402-17.75h4.6L36.84 14.82l.108 1.176h.106l.107-1.176 2.73-10.533h4.6l-5.402 17.698 5.99 19.728h-4.6m31.815-4.383c.374-.643.428-1.658.428-3.583V27.6h4.173v6.308c0 3.208-.588 4.918-1.23 5.88-.694 1.017-2.192 2.46-5.08 2.46-2.727 0-4.278-1.443-5.027-2.513-1.444-2.085-1.39-5.08-1.39-6.95v-20.53c0-2.193.053-4.332 1.39-6.15.75-1.015 2.353-2.352 5.24-2.352 1.82 0 3.53.587 4.707 2.19 1.55 2.087 1.39 5.08 1.39 6.845v4.117h-3.957V11.29c0-.854 0-2.084-.588-2.832-.32-.374-.856-.75-1.71-.75-.857 0-1.392.376-1.713.75-.588.748-.588 1.978-.588 2.833V33.75c0 1.925.053 2.94.428 3.582.16.32.695.962 1.765.962 1.068 0 1.603-.642 1.763-.963m24.917 4.383V4.287h4.17v33.47h6.9v3.956H97.21m38.18-10.853l-1.927-18.5-.106-.053-1.926 18.553h3.96zm1.12 10.853l-.747-6.897h-4.706l-.75 6.897h-4.277l4.706-37.426h5.347l4.706 37.426h-4.28zm56.787 0l-4.17-30.315h-.16l.373 4.972v25.343h-4.172V4.287h6.417l3.21 24.06h.106l3.21-24.06h6.418v37.426h-4.172V16.37l.374-4.972h-.16l-4.172 30.315h-3.1" fill="#0A0A08"/></g></svg>
<svg width="24" height="25" viewBox="0 0 24 25" id="logo__cart" y="572"><title>cart</title><g fill="#FF0092" fill-rule="evenodd"><path d="M23.672 6.203a.84.84 0 0 0-.65-.316H18.43V8.41c0 1.16-.963 2.102-2.144 2.102-1.182 0-2.143-.943-2.143-2.102V5.887H9.857V8.41c0 1.16-.96 2.102-2.143 2.102-1.18 0-2.143-.943-2.143-2.102V5.887H.98a.84.84 0 0 0-.65.316 1 1 0 0 0-.214.737l1.542 14.67c.028 1.653 1.275 2.99 2.803 2.99h15.083c1.528 0 2.775-1.337 2.803-2.99l1.542-14.67a1 1 0 0 0-.215-.737z"/><path d="M7.714 9.25a.85.85 0 0 0 .857-.84V3.784c0-1.298 1.337-2.102 2.574-2.102h2.143c1.3 0 2.143.825 2.143 2.102V8.41c0 .464.383.84.856.84a.85.85 0 0 0 .857-.84V3.784C17.143 1.592 15.52 0 13.286 0h-2.143C8.78 0 6.857 1.698 6.857 3.784V8.41c0 .464.385.84.857.84z"/></g></svg>
<svg width="16" height="16" viewBox="0 0 16 16" id="logo__instagram" y="597"><title>instagram</title><path d="M12.908 0H3.092A3.095 3.095 0 0 0 0 3.092v9.816A3.095 3.095 0 0 0 3.092 16h9.816A3.095 3.095 0 0 0 16 12.908V3.09A3.095 3.095 0 0 0 12.908 0zm.887 1.844h.353v2.71l-2.702.01-.01-2.712 2.36-.008zm-8.08 4.514A2.815 2.815 0 0 1 8 5.183c.94 0 1.77.466 2.283 1.175A2.8 2.8 0 0 1 10.816 8 2.82 2.82 0 0 1 8 10.816 2.82 2.82 0 0 1 5.183 8c0-.614.2-1.18.533-1.642zm8.726 6.55c0 .845-.686 1.533-1.53 1.533H3.09a1.534 1.534 0 0 1-1.532-1.53V6.36h2.387A4.352 4.352 0 0 0 3.625 8 4.38 4.38 0 0 0 8 12.375 4.38 4.38 0 0 0 12.375 8c0-.58-.117-1.135-.323-1.642h2.39v6.55z" fill="#1A1A1A" fill-rule="evenodd"/></svg>
<svg width="6" height="16" viewBox="0 0 6 16" id="logo_facebook" y="613"><title>facebook</title><path d="M6 4.96H3.957V3.37c0-.597.333-.737.568-.737h1.442V.01L3.98 0C1.778 0 1.276 1.957 1.276 3.21v1.75H0v2.703h1.275v7.652h2.682V7.663h1.81L6 4.96z" fill="#1A1A1A" fill-rule="evenodd"/></svg>
<svg width="16" height="16" viewBox="0 0 16 16" id="menu__search" y="629"><title>search</title><path d="M15.7 14.3l-3.105-3.105A6.966 6.966 0 0 0 14 7a7 7 0 1 0-7 7 6.96 6.96 0 0 0 4.194-1.405L14.3 15.7c.184.184.38.3.7.3a1 1 0 0 0 1-1 .926.926 0 0 0-.3-.7zM2 7a5 5 0 0 1 5-5 5 5 0 0 1 5 5 5 5 0 0 1-5 5 5 5 0 0 1-5-5z" fill="#1A1A1A" fill-rule="evenodd"/></svg>
<svg width="16" height="16" viewBox="0 0 16 16" id="menu__search--black" y="645"><title>search</title><path d="M15.7 14.3l-3.105-3.105A6.966 6.966 0 0 0 14 7a7 7 0 1 0-7 7 6.96 6.96 0 0 0 4.194-1.405L14.3 15.7c.184.184.38.3.7.3a1 1 0 0 0 1-1 .926.926 0 0 0-.3-.7zM2 7a5 5 0 0 1 5-5 5 5 0 0 1 5 5 5 5 0 0 1-5 5 5 5 0 0 1-5-5z" fill="#FFF" fill-rule="evenodd"/></svg>
<svg width="20" height="40" viewBox="0 0 20 40" id="radio" y="661"><title>radio</title><g transform="translate(1 1)" stroke="#4A4A4A" stroke-width="2" fill="none" fill-rule="evenodd"><circle cx="9" cy="9" r="9"/><circle fill="#4A4A4A" cx="9" cy="9" r="4"/><circle cx="9" cy="29" r="9"/></g></svg>
<svg width="13" height="9" viewBox="0 0 13 9" id="select" y="701"><title>Path 305</title><path d="M1 1.194L6.23 7l5.778-6" stroke="#1A1A1A" stroke-width="2" fill="none"/></svg>
<svg width="17" height="17" viewBox="0 0 17 17" id="top-panel__cart" y="710"><title>cart</title><g fill="#FF0092" fill-rule="evenodd"><path d="M16.28 4.218a.557.557 0 0 0-.43-.215h-3.064V5.72c0 .787-.64 1.428-1.43 1.428a1.43 1.43 0 0 1-1.427-1.43V4.004H7.07V5.72c0 .787-.64 1.428-1.427 1.428a1.43 1.43 0 0 1-1.43-1.43V4.004h-3.06a.557.557 0 0 0-.434.215.69.69 0 0 0-.146.5l1.028 9.975c.02 1.125.85 2.033 1.87 2.033h10.055c1.02 0 1.85-.908 1.87-2.033l1.027-9.975a.69.69 0 0 0-.144-.502z"/><path d="M5.643 6.29c.315 0 .57-.256.57-.57V2.572c0-.883.89-1.43 1.716-1.43h1.426c.868 0 1.43.562 1.43 1.43V5.72a.572.572 0 0 0 1.142 0V2.572C11.93 1.082 10.846 0 9.356 0H7.93C6.352 0 5.07 1.154 5.07 2.573V5.72c0 .314.258.57.573.57z"/></g></svg>
<svg width="14" height="14" viewBox="0 0 14 14" id="top-panel__close" y="727"><title>close</title><path d="M1.5 12.5l11-11m0 11l-11-11" stroke-linecap="square" stroke="#1A1A1A" stroke-width="2" fill="none" fill-rule="evenodd"/></svg>
<svg width="14" height="13" viewBox="0 0 14 13" id="top-panel__heart" y="741"><title>heart</title><path d="M1.105 1.1c-1.494 1.53-1.453 3.887 0 5.417l5.207 5.517c.38.402.988.41 1.376 0l5.207-5.517c1.453-1.53 1.494-3.888 0-5.418a3.886 3.886 0 0 0-5.417 0L7 1.61l-.478-.51C5.775.334 4.792.015 3.812.015c-.977 0-1.96.32-2.707 1.083z" fill="#FF0092" fill-rule="evenodd"/></svg>
</svg>